<svg width="148" height="44" viewBox="0 0 148 44" fill="none" xmlns="http://www.w3.org/2000/svg">
<g clip-path="url(#clip0_1_31)">
<path d="M5.328 18.8L16 25.2L32 15.6L16 6L0 15.6H16V18.8H5.328ZM0 18.8V31.6L3.2 28.048V20.72L0 18.8ZM16 38L8 33.2L4.8 31.28V21.68L16 28.4L27.2 21.68V31.28L16 38Z" fill="#1C1F65"/>
</g>
<path d="M55.984 34.48C53.68 34.48 51.7067 33.9787 50.064 32.976C48.4213 31.9627 47.1573 30.5547 46.272 28.752C45.3973 26.9493 44.96 24.8587 44.96 22.48C44.96 20.1013 45.3973 18.0107 46.272 16.208C47.1573 14.4053 48.4213 13.0027 50.064 12C51.7067 10.9867 53.68 10.48 55.984 10.48C58.288 10.48 60.2613 10.9867 61.904 12C63.5573 13.0027 64.8213 14.4053 65.696 16.208C66.5813 18.0107 67.024 20.1013 67.024 22.48C67.024 24.8587 66.5813 26.9493 65.696 28.752C64.8213 30.5547 63.5573 31.9627 61.904 32.976C60.2613 33.9787 58.288 34.48 55.984 34.48ZM55.984 30.848C57.5307 30.8587 58.816 30.5173 59.84 29.824C60.8747 29.1307 61.648 28.1547 62.16 26.896C62.6827 25.6373 62.944 24.1653 62.944 22.48C62.944 20.7947 62.6827 19.3333 62.16 18.096C61.648 16.848 60.8747 15.8773 59.84 15.184C58.816 14.4907 57.5307 14.1333 55.984 14.112C54.4373 14.1013 53.152 14.4427 52.128 15.136C51.104 15.8293 50.3307 16.8053 49.808 18.064C49.296 19.3227 49.04 20.7947 49.04 22.48C49.04 24.1653 49.296 25.632 49.808 26.88C50.32 28.1173 51.088 29.0827 52.112 29.776C53.1467 30.4693 54.4373 30.8267 55.984 30.848ZM83.1608 34V25.68C83.1608 25.136 83.1234 24.5333 83.0488 23.872C82.9741 23.2107 82.7981 22.576 82.5208 21.968C82.2541 21.3493 81.8488 20.8427 81.3048 20.448C80.7714 20.0533 80.0461 19.856 79.1288 19.856C78.6381 19.856 78.1528 19.936 77.6728 20.096C77.1928 20.256 76.7554 20.5333 76.3608 20.928C75.9768 21.312 75.6674 21.8453 75.4328 22.528C75.1981 23.2 75.0808 24.064 75.0808 25.12L72.7928 24.144C72.7928 22.672 73.0754 21.3387 73.6408 20.144C74.2168 18.9493 75.0594 18 76.1688 17.296C77.2781 16.5813 78.6434 16.224 80.2648 16.224C81.5448 16.224 82.6008 16.4373 83.4328 16.864C84.2648 17.2907 84.9261 17.8347 85.4167 18.496C85.9074 19.1573 86.2701 19.8613 86.5048 20.608C86.7394 21.3547 86.8888 22.064 86.9528 22.736C87.0274 23.3973 87.0648 23.936 87.0648 24.352V34H83.1608ZM71.1768 34V16.72H74.6168V22.08H75.0808V34H71.1768Z" fill="#FF4848"/>
<path d="M92.24 34V10.96H107.12V14.576H96.096V20.256H105.2V23.872H96.096V30.384H107.12V34H92.24ZM118.887 34.48C117.297 34.48 115.911 34.08 114.727 33.28C113.543 32.48 112.625 31.392 111.975 30.016C111.324 28.64 110.999 27.088 110.999 25.36C110.999 23.6107 111.324 22.0533 111.975 20.688C112.636 19.312 113.569 18.2293 114.775 17.44C115.98 16.64 117.399 16.24 119.031 16.24C120.673 16.24 122.049 16.64 123.159 17.44C124.279 18.2293 125.127 19.312 125.703 20.688C126.279 22.064 126.567 23.6213 126.567 25.36C126.567 27.0773 126.279 28.6293 125.703 30.016C125.127 31.392 124.268 32.48 123.127 33.28C121.985 34.08 120.572 34.48 118.887 34.48ZM119.479 31.024C120.513 31.024 121.345 30.7893 121.975 30.32C122.615 29.84 123.079 29.1733 123.367 28.32C123.665 27.4667 123.815 26.48 123.815 25.36C123.815 24.2293 123.665 23.2427 123.367 22.4C123.079 21.5467 122.625 20.8853 122.007 20.416C121.388 19.936 120.588 19.696 119.607 19.696C118.572 19.696 117.719 19.952 117.047 20.464C116.375 20.9653 115.879 21.648 115.559 22.512C115.239 23.3653 115.079 24.3147 115.079 25.36C115.079 26.416 115.233 27.376 115.543 28.24C115.863 29.0933 116.348 29.7707 116.999 30.272C117.649 30.7733 118.476 31.024 119.479 31.024ZM123.815 34V21.872H123.335V10.96H127.223V34H123.815ZM139.381 34.48C137.247 34.48 135.514 34 134.181 33.04C132.847 32.08 132.037 30.7307 131.749 28.992L135.685 28.384C135.887 29.2373 136.335 29.9093 137.029 30.4C137.722 30.8907 138.597 31.136 139.653 31.136C140.581 31.136 141.295 30.9547 141.797 30.592C142.309 30.2187 142.565 29.712 142.565 29.072C142.565 28.6773 142.469 28.3627 142.277 28.128C142.095 27.8827 141.69 27.648 141.061 27.424C140.431 27.2 139.466 26.9173 138.165 26.576C136.714 26.192 135.562 25.7813 134.709 25.344C133.855 24.896 133.242 24.368 132.869 23.76C132.495 23.152 132.309 22.416 132.309 21.552C132.309 20.4747 132.591 19.536 133.157 18.736C133.722 17.936 134.511 17.3227 135.525 16.896C136.538 16.4587 137.733 16.24 139.109 16.24C140.453 16.24 141.642 16.448 142.677 16.864C143.722 17.28 144.565 17.872 145.205 18.64C145.845 19.408 146.239 20.3093 146.389 21.344L142.453 22.048C142.357 21.312 142.021 20.7307 141.445 20.304C140.879 19.8773 140.122 19.6373 139.173 19.584C138.266 19.5307 137.535 19.6693 136.981 20C136.426 20.32 136.149 20.7733 136.149 21.36C136.149 21.6907 136.261 21.9733 136.485 22.208C136.709 22.4427 137.157 22.6773 137.829 22.912C138.511 23.1467 139.525 23.4347 140.869 23.776C142.245 24.128 143.343 24.5333 144.165 24.992C144.997 25.44 145.594 25.9787 145.957 26.608C146.33 27.2373 146.517 28 146.517 28.896C146.517 30.6347 145.882 32 144.613 32.992C143.354 33.984 141.61 34.48 139.381 34.48Z" fill="#030027"/>
<defs>
<clipPath id="clip0_1_31">
<rect width="32" height="32" fill="white" transform="translate(0 6)"/>
</clipPath>
</defs>
</svg>
